<svg width="150" height="150" viewBox="0 0 150 150" fill="none" xmlns="http://www.w3.org/2000/svg">
<path d="M74.4055 128.201C102.725 128.201 125.682 119.195 125.682 108.086C125.682 96.9766 102.725 87.9707 74.4055 87.9707C46.0864 87.9707 23.1292 96.9766 23.1292 108.086C23.1292 119.195 46.0864 128.201 74.4055 128.201Z" fill="#F9FAFB"/>
<path d="M36.8584 63.7598L23.7264 73.0806C23.7264 73.0806 33.7987 88.8209 43.6931 92.8042L53.7639 84.1889C53.7653 84.1889 42.2084 76.1431 36.8584 63.7598Z" fill="#F7F9FC"/>
<path d="M87.507 111.849L88.5 118.61C88.5 118.61 98.1639 119.029 102.257 115.463L100.678 108.904C100.678 108.904 94.3583 112.285 87.507 111.849Z" fill="#F7F9FC"/>
<path d="M114.551 65.1959L125.085 57.1321C125.085 57.1321 115.478 40.6876 105.575 37.6362L96.525 46.7946C96.525 46.7946 108.367 53.6432 114.551 65.1959Z" fill="#F7F9FC"/>
<g opacity="0.6">
<path d="M50.2279 91.7363C49.157 93.9197 48.2904 96.0488 47.6404 98.0724L42.9098 106.886L37.8612 91.7363H50.2279Z" fill="#98A2B3"/>
<path d="M42.9098 107.199C42.9015 107.199 42.8918 107.199 42.8834 107.197C42.7598 107.186 42.6529 107.103 42.614 106.985L37.564 91.8349C37.532 91.7391 37.5487 91.6349 37.607 91.553C37.6654 91.471 37.7598 91.4238 37.8612 91.4238H50.2293C50.3376 91.4238 50.4376 91.4794 50.4945 91.5711C50.5515 91.6627 50.557 91.7766 50.5098 91.8738C49.4543 94.0252 48.5904 96.1419 47.939 98.1683C47.9334 98.1863 47.9251 98.2044 47.9168 98.2211L43.1862 107.035C43.1306 107.136 43.0237 107.199 42.9098 107.199ZM38.2945 92.0488L42.9779 106.1L47.3529 97.9502C47.9654 96.046 48.7654 94.0627 49.7306 92.0488H38.2945Z" fill="#F9FAFB"/>
</g>
<path d="M46.2112 106.888H42.9098V106.887L47.6403 98.0728C46.589 101.353 46.1001 104.36 46.2112 106.888Z" fill="#D0D5DD"/>
<path d="M46.2112 107.2H42.9098C42.7376 107.2 42.5973 107.06 42.5973 106.888C42.5973 106.837 42.6098 106.784 42.6348 106.738L47.3653 97.924C47.4417 97.7823 47.614 97.7212 47.7626 97.7837C47.9112 97.8462 47.9876 98.0129 47.9376 98.1671C46.8876 101.439 46.4126 104.368 46.5237 106.874C46.5278 106.959 46.4959 107.042 46.4376 107.103C46.3778 107.166 46.2973 107.2 46.2112 107.2ZM43.4306 106.575H45.8876C45.8445 104.805 46.0765 102.842 46.5778 100.712L43.4306 106.575Z" fill="#F9FAFB"/>
<path d="M49.7972 106.51L49.7181 106.782C49.3139 108.16 49.0097 109.499 48.8125 110.763L48.7903 110.907L48.8708 111.029C49.3236 111.719 49.8972 112.264 50.5764 112.644L51.0903 112.933L51.1403 112.347C51.2792 110.721 51.6458 108.921 52.2278 107L52.3764 106.511H49.7972V106.51Z" fill="#D0D5DD"/>
<path d="M51.0876 113.246C51.0348 113.246 50.982 113.232 50.9348 113.206L50.4209 112.917C49.6987 112.511 49.0889 111.933 48.6084 111.2L48.5278 111.078C48.4848 111.013 48.4681 110.935 48.4806 110.858L48.5028 110.714C48.7028 109.438 49.0098 108.085 49.4181 106.694L49.4973 106.422C49.5362 106.289 49.6584 106.197 49.7973 106.197H52.3737C52.4723 106.197 52.5653 106.244 52.6251 106.324C52.6834 106.403 52.7014 106.506 52.6737 106.6L52.5251 107.089C51.9487 108.99 51.5876 110.768 51.4501 112.372L51.4001 112.96C51.3903 113.065 51.3292 113.16 51.2348 113.21C51.1876 113.233 51.1376 113.246 51.0876 113.246ZM49.1167 110.835L49.1306 110.856C49.5556 111.504 50.0931 112.014 50.7278 112.371L50.8181 112.422L50.8264 112.319C50.9681 110.671 51.3376 108.85 51.9264 106.908L51.9528 106.822H50.032L50.0181 106.869C49.6181 108.235 49.3153 109.56 49.1209 110.81L49.1167 110.835Z" fill="#F9FAFB"/>
<path d="M52.0986 91.7363H78.2194C75.0042 97.2405 70.8667 102.352 66.4111 106.292C66.1819 106.495 65.9528 106.695 65.7236 106.889H51.8625H50.0819H48.0111C47.7264 102.968 49.1528 97.578 52.0986 91.7363Z" fill="#E4E7EC"/>
<path d="M65.7236 107.202H48.0111C47.8472 107.202 47.7111 107.075 47.7 106.911C47.407 102.885 48.8709 97.4446 51.8209 91.5946C51.8736 91.489 51.982 91.4224 52.1 91.4224H78.2209C78.3334 91.4224 78.4361 91.4821 78.4917 91.5793C78.5473 91.6765 78.5472 91.796 78.4903 91.8932C75.2709 97.4057 71.0542 102.603 66.6195 106.525C66.3889 106.729 66.157 106.929 65.9264 107.127C65.8695 107.175 65.7986 107.202 65.7236 107.202ZM48.3056 106.577H65.6098C65.8084 106.407 66.007 106.233 66.2056 106.058C70.4667 102.289 74.5236 97.3307 77.6736 92.0488H52.2917C49.5195 97.5932 48.1111 102.729 48.3056 106.577Z" fill="#F9FAFB"/>
<path d="M75.8083 106.51L75.6944 106.653C73.5569 109.358 71.2653 111.8 68.8806 113.908C64.1653 118.08 59.5347 120.474 56.175 120.474C54.2806 120.474 52.8903 119.717 52.0444 118.225C51.4597 117.193 51.1361 115.862 51.0819 114.269L51.0722 114.008L50.825 113.924C50.2125 113.714 49.6542 113.412 49.1653 113.028L48.5819 112.568L48.5514 113.31C48.4458 115.862 48.8556 117.972 49.7681 119.585C51.0167 121.786 53.1375 122.949 55.9 122.949C59.9931 122.949 65.1764 120.357 70.4958 115.649C73.075 113.365 75.5472 110.719 77.8403 107.789C77.9694 107.625 78.0958 107.461 78.2222 107.296L78.8306 106.507H75.8083V106.51Z" fill="#98A2B3"/>
<path d="M55.9014 123.263C53.0209 123.263 50.8056 122.044 49.4986 119.74C48.5556 118.076 48.1334 115.91 48.2417 113.299L48.2723 112.557C48.2778 112.44 48.3473 112.335 48.4542 112.286C48.5611 112.238 48.6861 112.251 48.7778 112.325L49.3611 112.785C49.8209 113.147 50.3486 113.432 50.9278 113.631L51.175 113.715C51.2973 113.757 51.382 113.871 51.3861 114L51.3959 114.261C51.4486 115.804 51.7598 117.086 52.3181 118.074C53.1042 119.461 54.4014 120.164 56.1764 120.164C59.4611 120.164 64.0167 117.8 68.675 113.676C71.0459 111.581 73.325 109.153 75.4514 106.461L75.5653 106.317C75.625 106.242 75.7153 106.197 75.8111 106.197H78.8361C78.9556 106.197 79.0639 106.265 79.1167 106.372C79.1695 106.479 79.157 106.607 79.0834 106.701L78.4598 107.51C78.3375 107.669 78.2153 107.828 78.0903 107.986C75.7848 110.932 73.3 113.59 70.707 115.886C65.3278 120.643 60.0709 123.263 55.9014 123.263ZM48.8709 113.194L48.8653 113.325C48.7625 115.818 49.1584 117.872 50.0417 119.432C51.232 121.529 53.2584 122.638 55.9014 122.638C59.9181 122.638 65.0278 120.074 70.2903 115.417C72.8542 113.146 75.3125 110.515 77.5959 107.599C77.7195 107.442 77.8403 107.285 77.9611 107.128L78.1973 106.821H75.9598L75.9403 106.846C73.7917 109.567 71.4861 112.022 69.0875 114.143C64.3167 118.365 59.6098 120.786 56.175 120.786C54.1598 120.786 52.6792 119.976 51.7736 118.379C51.1639 117.304 50.8264 115.925 50.7695 114.281L50.7681 114.235L50.725 114.219C50.0778 113.999 49.4889 113.681 48.9736 113.274L48.8709 113.194Z" fill="#F9FAFB"/>
<path d="M94.6973 106.753L94.7751 106.781V106.783L94.7765 106.781L94.8557 106.81L94.7987 106.917L94.7209 106.89L94.6404 106.859L94.6973 106.753Z" fill="black"/>
<path d="M94.7987 107.23C94.764 107.23 94.7278 107.224 94.6931 107.212L94.5334 107.155C94.4473 107.124 94.3806 107.057 94.3473 106.973C94.314 106.888 94.3209 106.794 94.364 106.713L94.4209 106.606C94.4945 106.47 94.657 106.407 94.8015 106.459L94.8792 106.487H94.8806L94.9612 106.516C95.0473 106.546 95.114 106.613 95.1473 106.698C95.1806 106.782 95.1737 106.877 95.1306 106.957L95.0737 107.064C95.0181 107.169 94.9112 107.23 94.7987 107.23Z" fill="#F9FAFB"/>
<path d="M111.408 51.417L116.424 66.4614L94.7764 106.781L89.7639 91.7364L103.275 66.5698L111.408 51.417Z" fill="#98A2B3"/>
<path d="M94.7765 107.093C94.7681 107.093 94.7584 107.093 94.7501 107.092C94.6265 107.081 94.5195 106.997 94.4806 106.879L89.4695 91.8336C89.4417 91.7516 89.4501 91.6627 89.4904 91.5864L111.135 51.2669C111.193 51.1572 111.315 51.0933 111.436 51.103C111.56 51.1141 111.667 51.1975 111.706 51.3155L116.72 66.36C116.747 66.4419 116.739 66.5308 116.699 66.6072L95.0515 106.927C94.9959 107.031 94.8904 107.093 94.7765 107.093ZM90.1042 91.7655L94.8445 105.995L116.085 66.4322L111.342 52.203L90.1042 91.7655Z" fill="#F9FAFB"/>
<path d="M94.6959 106.752L94.7751 106.779L89.764 91.7363H80.1376C76.914 97.4113 72.7167 102.724 68.1667 106.888H81.6292H94.7209L94.639 106.86L94.6959 106.752Z" fill="#E4E7EC"/>
<path d="M94.7209 107.2H68.1667C68.0376 107.2 67.9223 107.121 67.8751 107C67.8278 106.879 67.8598 106.743 67.9556 106.657C72.4487 102.546 76.6792 97.1918 79.8667 91.5807C79.9223 91.4835 80.0265 91.4224 80.139 91.4224H89.7653C89.9001 91.4224 90.0195 91.5085 90.0612 91.6363L95.0723 106.681C95.1056 106.781 95.0862 106.89 95.0209 106.972C94.9834 107.107 94.8626 107.2 94.7209 107.2ZM68.9612 106.575H94.3778L89.539 92.0488H80.3195C77.2501 97.4126 73.2417 102.538 68.9612 106.575Z" fill="#F9FAFB"/>
<path d="M78.0014 91.3574L77.8917 91.5449C74.707 96.9963 70.5417 102.132 66.1598 106.009C65.932 106.21 65.7042 106.407 65.4778 106.6C61.0125 110.396 56.6306 112.574 53.457 112.574C52.4862 112.574 51.6417 112.375 50.9459 111.985C50.3737 111.664 49.8889 111.203 49.5028 110.614C49.4417 110.521 49.3834 110.425 49.3264 110.325C48.8042 109.405 48.4889 108.239 48.3889 106.863C48.1056 102.959 49.5431 97.6477 52.4375 91.9088L52.7153 91.3588H49.9931L49.8889 91.5713C47.0903 97.2783 45.65 102.724 45.8348 106.907C45.9181 108.799 46.3278 110.407 47.0528 111.687C47.4903 112.459 48.0445 113.112 48.6987 113.628C49.2542 114.066 49.8875 114.409 50.582 114.646C51.3709 114.916 52.2459 115.052 53.1848 115.052C57.2778 115.052 62.4612 112.46 67.7792 107.752C67.9959 107.56 68.2098 107.367 68.425 107.171C72.9681 103.013 77.2459 97.5977 80.4709 91.9269L80.7931 91.3602H78.0014V91.3574Z" fill="#D0D5DD"/>
<path d="M53.1834 115.362C52.2112 115.362 51.3015 115.22 50.4807 114.939C49.7529 114.691 49.089 114.331 48.5043 113.871C47.8182 113.33 47.2376 112.646 46.7793 111.839C46.0307 110.517 45.607 108.862 45.5209 106.92C45.3348 102.685 46.7848 97.1852 49.607 91.4324L49.7112 91.2199C49.764 91.113 49.8723 91.0449 49.9918 91.0449H52.714C52.8223 91.0449 52.9237 91.1019 52.9807 91.1935C53.0376 91.2866 53.0418 91.4019 52.9932 91.4977L52.7154 92.0477C49.8459 97.738 48.4195 102.991 48.7001 106.839C48.7959 108.169 49.0987 109.289 49.5973 110.171C49.6487 110.262 49.7043 110.353 49.764 110.444C50.1223 110.988 50.5709 111.416 51.0987 111.712C51.7473 112.075 52.5404 112.262 53.457 112.262C56.5584 112.262 60.8668 110.112 65.2765 106.363C65.5015 106.171 65.7279 105.975 65.9543 105.775C70.3112 101.921 74.4557 96.8116 77.6237 91.3894L77.7334 91.2019C77.789 91.106 77.8918 91.0463 78.0029 91.0463H80.7904C80.9015 91.0463 81.0043 91.106 81.0598 91.2019C81.1154 91.2977 81.1168 91.4171 81.0612 91.513L80.739 92.0796C77.5001 97.7782 73.2015 103.219 68.6334 107.399C68.4182 107.596 68.2015 107.791 67.9848 107.984C62.6098 112.741 57.3529 115.362 53.1834 115.362ZM50.1862 91.6699L50.1682 91.7074C47.3918 97.3671 45.964 102.76 46.1459 106.892C46.2265 108.734 46.6237 110.295 47.3237 111.531C47.7418 112.267 48.2682 112.891 48.8918 113.381C49.4195 113.798 50.0223 114.123 50.6834 114.348C51.439 114.606 52.2807 114.737 53.1848 114.737C57.2015 114.737 62.3112 112.173 67.5723 107.516C67.7862 107.325 68.0001 107.134 68.214 106.938C72.7334 102.8 76.9904 97.413 80.1987 91.7685L80.2557 91.6685H78.1834L78.164 91.7019C74.964 97.181 70.7751 102.344 66.3695 106.242C66.1404 106.445 65.9112 106.644 65.682 106.838C61.1612 110.681 56.7057 112.885 53.4584 112.885C52.4334 112.885 51.5362 112.673 50.7945 112.256C50.1793 111.91 49.657 111.414 49.2445 110.785C49.1779 110.684 49.1154 110.581 49.057 110.478C48.5112 109.516 48.1834 108.307 48.0793 106.884C47.7918 102.924 49.2404 97.556 52.1598 91.7658L52.2084 91.6685H50.1862V91.6699Z" fill="#F9FAFB"/>
<path d="M111.408 51.417L103.275 66.5698L89.764 91.7364H80.139H78.2195H52.0987H50.2279H37.8612L59.507 51.417H111.408Z" fill="#D0D5DD"/>
<path d="M89.764 92.0489H37.8612C37.7515 92.0489 37.6501 91.9905 37.5932 91.8961C37.5362 91.8016 37.5334 91.685 37.5862 91.5877L59.232 51.2683C59.2862 51.1669 59.3918 51.103 59.507 51.103H111.408C111.518 51.103 111.62 51.1614 111.676 51.2544C111.733 51.3475 111.736 51.4655 111.683 51.5627L90.039 91.8822C89.9848 91.985 89.8793 92.0489 89.764 92.0489ZM38.3834 91.4239H89.5779L110.886 51.7294H59.6945L38.3834 91.4239Z" fill="#F9FAFB"/>
<path d="M94.1669 61.1528C94.5655 61.1528 94.8349 61.4542 94.7821 61.832C94.7266 62.2112 94.3627 62.5237 93.9669 62.5278L68.096 62.8667C67.6974 62.8667 67.428 62.5639 67.4821 62.1889C67.5377 61.8084 67.9016 61.4973 68.296 61.4917L94.1669 61.1528Z" fill="#F7F9FC"/>
<path d="M90.7099 66.8682C91.1113 66.8682 91.3793 67.1709 91.3251 67.5459C91.2696 67.9265 90.9057 68.2376 90.5113 68.2432L64.6404 68.5821C64.2418 68.5821 63.9724 68.2807 64.0251 67.9029C64.0807 67.5237 64.4446 67.2112 64.8404 67.2071L90.7099 66.8682Z" fill="#F7F9FC"/>
<path d="M87.2543 72.582C87.6515 72.582 87.9223 72.8834 87.8668 73.2612C87.8126 73.6404 87.4473 73.9529 87.0543 73.957L61.1834 74.2959C60.7848 74.2959 60.5154 73.9931 60.5695 73.6181C60.6237 73.2376 60.989 72.9265 61.3834 72.9209L87.2543 72.582Z" fill="#F7F9FC"/>
<path d="M83.7974 78.2988C84.1988 78.2988 84.4654 78.6016 84.4126 78.9766C84.3571 79.3572 83.9932 79.6683 83.5974 79.6738L57.7265 80.0127C57.3293 80.0127 57.0585 79.7113 57.114 79.3336C57.1696 78.9544 57.5335 78.6419 57.9265 78.6377L83.7974 78.2988Z" fill="#F7F9FC"/>
<path d="M54.1236 59.0017C54.7722 59.0739 54.9944 59.6114 54.6236 60.2031C54.2541 60.7934 53.4305 61.2156 52.7819 61.1447C52.1375 61.0739 51.9111 60.535 52.2805 59.9448C52.6514 59.3517 53.4791 58.9295 54.1236 59.0017Z" fill="#98A2B3"/>
<path d="M52.9291 61.4366C52.8694 61.4366 52.8097 61.4338 52.7514 61.4268C52.3541 61.3824 52.0555 61.1935 51.9097 60.8921C51.7555 60.5741 51.8028 60.1741 52.0403 59.7935C52.4694 59.1074 53.3972 58.6352 54.1541 58.7185C54.5528 58.763 54.8514 58.9518 54.9972 59.2518C55.1514 59.5699 55.1028 59.9713 54.8639 60.3532C54.4694 60.9866 53.6486 61.4366 52.9291 61.4366ZM53.975 59.2782C53.4541 59.2782 52.8125 59.6324 52.5222 60.0963C52.3903 60.306 52.3541 60.5074 52.4208 60.6449C52.4778 60.763 52.618 60.8407 52.8139 60.863C53.3514 60.9227 54.0708 60.5518 54.3819 60.0532C54.5153 59.8407 54.5528 59.6393 54.4847 59.5018C54.4278 59.3838 54.2875 59.3074 54.0916 59.2852C54.0541 59.2796 54.0153 59.2782 53.975 59.2782Z" fill="#F9FAFB"/>
<path d="M61.8709 46.6277C62.5875 46.7069 62.8223 47.3472 62.3514 48.0069L55.3056 57.9777C55.1361 58.218 54.7945 58.3819 54.5292 58.3528L54.4959 58.3472C54.2514 58.3041 54.1723 58.093 54.2945 57.8666L59.8236 47.7278C60.1736 47.0847 61.0473 46.5889 61.7723 46.6222C61.807 46.6222 61.8389 46.6236 61.8709 46.6277Z" fill="#98A2B3"/>
<path d="M54.5945 58.6391C54.5625 58.6391 54.5306 58.6377 54.4987 58.6335C54.4931 58.6335 54.4875 58.6321 54.482 58.6307L54.4487 58.6252C54.2445 58.5891 54.0889 58.4779 54.0084 58.3113C53.925 58.1377 53.9389 57.9266 54.0459 57.7293L59.5764 47.5904C59.9806 46.8502 60.9542 46.2988 61.7875 46.3363C61.832 46.3391 61.8667 46.3404 61.9028 46.3446C62.325 46.3918 62.65 46.6057 62.7973 46.9349C62.9612 47.3002 62.8834 47.7516 62.5834 48.171L55.5389 58.1404C55.3278 58.4404 54.9431 58.6391 54.5945 58.6391ZM54.5681 58.0696C54.7334 58.0835 54.9667 57.9654 55.0737 57.8127L62.1195 47.8418C62.2973 47.5932 62.3556 47.3418 62.2778 47.1668C62.2139 47.0252 62.0584 46.9335 61.8403 46.9099C61.8153 46.9071 61.7917 46.9057 61.7667 46.9043C61.1431 46.8766 60.3723 47.3154 60.075 47.8627L54.5459 58.0016C54.5306 58.0293 54.5264 58.0488 54.5237 58.0599C54.5292 58.0613 54.5361 58.0641 54.5473 58.0654L54.5681 58.0696Z" fill="#F9FAFB"/>
<path d="M63.6028 43.8462C69.6653 44.5156 71.7653 49.5545 68.2972 55.1003C64.8305 60.6434 57.1055 64.5962 51.043 63.9267C44.9833 63.2573 42.8833 58.2184 46.35 52.6753C49.818 47.1281 57.543 43.1753 63.6028 43.8462Z" fill="#98A2B3"/>
<path d="M52.4056 64.2836C51.9334 64.2836 51.4681 64.2586 51.0125 64.2086C48.125 63.8891 45.9875 62.5822 44.9931 60.5294C43.9139 58.3016 44.3209 55.3836 46.1098 52.5238C49.6236 46.903 57.4875 42.885 63.6348 43.5641C66.5223 43.8836 68.6611 45.1905 69.6556 47.2447C70.7348 49.4725 70.3278 52.3919 68.5389 55.2516C65.2848 60.453 58.3042 64.2836 52.4056 64.2836ZM62.2264 44.0558C56.5153 44.0558 49.75 47.7738 46.5917 52.8238C44.9098 55.5141 44.5139 58.2308 45.5056 60.2794C46.4112 62.1502 48.3903 63.3447 51.075 63.6419C57.0306 64.3002 64.6473 60.4002 68.057 54.9475C69.7403 52.2572 70.1362 49.5391 69.1445 47.4905C68.2375 45.6183 66.2598 44.4252 63.5737 44.128C63.132 44.0794 62.682 44.0558 62.2264 44.0558Z" fill="#F9FAFB"/>
<path d="M54.6237 60.2028C54.9931 59.6111 54.7723 59.0722 54.1237 59.0014C53.4792 58.9306 52.6514 59.3528 52.282 59.9445C51.9126 60.5347 52.1389 61.0736 52.7834 61.1445C53.432 61.2153 54.2556 60.7931 54.6237 60.2028Z" fill="#F9FAFB"/>
<path d="M52.9293 61.4361C52.8695 61.4361 52.8098 61.4333 52.7515 61.4264C52.3543 61.3819 52.0557 61.193 51.9098 60.8916C51.7557 60.5736 51.8029 60.1736 52.0404 59.793C52.4695 59.1069 53.3959 58.6347 54.1543 58.718C54.5529 58.7625 54.8515 58.9514 54.9973 59.2514C55.1515 59.5694 55.1029 59.9708 54.864 60.3527C54.4695 60.9861 53.6487 61.4361 52.9293 61.4361ZM53.9751 59.2777C53.4543 59.2777 52.8126 59.6319 52.5223 60.0958C52.3904 60.3055 52.3543 60.5069 52.4209 60.6444C52.4779 60.7625 52.6182 60.8402 52.814 60.8625C53.3529 60.9222 54.0709 60.5514 54.382 60.0527C54.5154 59.8402 54.5529 59.6389 54.4848 59.5014C54.4279 59.3833 54.2876 59.3069 54.0918 59.2847C54.0543 59.2791 54.0154 59.2777 53.9751 59.2777Z" fill="#F9FAFB"/>
<path d="M62.3514 48.0059C62.8222 47.3475 62.5875 46.7072 61.8708 46.6267C61.8389 46.6225 61.8069 46.6211 61.7736 46.6198C61.0486 46.5864 60.175 47.0822 59.825 47.7253L54.2958 57.8642C54.1722 58.0906 54.2528 58.3017 54.4972 58.3447L54.5305 58.3503C54.7958 58.3795 55.1375 58.2156 55.3069 57.9753L62.3514 48.0059Z" fill="#F9FAFB"/>
<path d="M54.5945 58.6391C54.5625 58.6391 54.5306 58.6377 54.4987 58.6335C54.4931 58.6335 54.4875 58.6321 54.482 58.6307L54.4487 58.6252C54.2445 58.5891 54.0889 58.4779 54.0084 58.3113C53.925 58.1377 53.9389 57.9266 54.0459 57.7293L59.5764 47.5904C59.9806 46.8502 60.9542 46.2988 61.7875 46.3363C61.8306 46.3391 61.8667 46.3404 61.9028 46.3446C62.325 46.3918 62.65 46.6057 62.7973 46.9349C62.9612 47.3002 62.8834 47.7516 62.5834 48.171L55.5389 58.1404C55.3278 58.4404 54.9431 58.6391 54.5945 58.6391ZM54.5681 58.0696C54.7306 58.0835 54.9667 57.9654 55.0737 57.8127L62.1195 47.8418V47.8404C62.2959 47.5932 62.3556 47.3404 62.2764 47.1668C62.2125 47.0252 62.057 46.9335 61.8389 46.9099C61.8139 46.9071 61.7903 46.9057 61.7653 46.9043C61.1403 46.8752 60.3723 47.3154 60.0737 47.8627L54.5445 58.0016C54.5292 58.0293 54.525 58.0488 54.5223 58.0599C54.5278 58.0613 54.5348 58.0641 54.5459 58.0654L54.5681 58.0696Z" fill="#F9FAFB"/>
</svg>
