<svg width="115" height="36" viewBox="0 0 115 36" fill="none" xmlns="http://www.w3.org/2000/svg">
<path d="M37.7072 20.4947C37.7072 17.9119 38.6464 15.7165 40.5248 13.9086C42.4032 12.1006 44.6807 11.1967 47.3574 11.1967C50.0341 11.1967 52.3117 12.1006 54.1901 13.9086C56.0684 15.7165 57.0076 17.9119 57.0076 20.4947C57.0076 23.054 56.0684 25.2259 54.1901 27.0103C52.3117 28.7948 50.0341 29.687 47.3574 29.687C44.6807 29.687 42.4032 28.7948 40.5248 27.0103C38.6464 25.2259 37.7072 23.054 37.7072 20.4947ZM44.8568 17.9236C44.1759 18.628 43.8354 19.4733 43.8354 20.4595C43.8354 21.4456 44.1759 22.2909 44.8568 22.9953C45.5377 23.6762 46.3713 24.0166 47.3574 24.0166C48.3436 24.0166 49.1771 23.6762 49.858 22.9953C50.5389 22.2909 50.8794 21.4456 50.8794 20.4595C50.8794 19.4733 50.5389 18.628 49.858 17.9236C49.1771 17.2192 48.3436 16.867 47.3574 16.867C46.3948 16.867 45.5612 17.2192 44.8568 17.9236Z" fill="#17181D"/>
<path d="M68.4232 11.408H68.8811C69.5151 11.408 69.832 11.7602 69.832 12.4646V16.7966C69.832 17.5245 69.4681 17.8884 68.7402 17.8884H67.7188C66.6857 17.8884 65.9461 18.135 65.5 18.628C65.0539 19.0976 64.8308 19.8372 64.8308 20.8469V28.4191C64.8308 28.6304 64.7369 28.8065 64.5491 28.9474C64.3847 29.0883 64.1969 29.1587 63.9855 29.1587H59.5479C59.3131 29.1587 59.1135 29.0883 58.9491 28.9474C58.8082 28.783 58.7378 28.5835 58.7378 28.3487V12.535C58.7378 12.3002 58.8082 12.1124 58.9491 11.9715C59.1135 11.8071 59.3131 11.725 59.5479 11.725H63.739C63.9503 11.725 64.1382 11.7954 64.3025 11.9363C64.4904 12.0772 64.5843 12.2533 64.5843 12.4646V13.4507C65.5704 12.0889 66.8501 11.408 68.4232 11.408Z" fill="#17181D"/>
<path d="M77.4879 5.31498V12.9224C78.4975 11.7719 80.0472 11.1967 82.1369 11.1967C84.5084 11.1967 86.5159 12.0419 88.1595 13.7325C89.8031 15.3996 90.6249 17.6184 90.6249 20.389C90.6249 23.1596 89.7796 25.402 88.0891 27.116C86.422 28.83 84.4027 29.687 82.0313 29.687C81.139 29.687 80.2468 29.5461 79.3546 29.2644C78.4858 29.0061 77.8401 28.6069 77.4175 28.0669V28.3487C77.4175 28.5835 77.3353 28.783 77.1709 28.9474C77.0301 29.0883 76.8422 29.1587 76.6074 29.1587H72.205C71.9702 29.1587 71.7706 29.0883 71.6062 28.9474C71.4653 28.783 71.3949 28.5835 71.3949 28.3487V5.31498C71.3949 5.08018 71.4653 4.89234 71.6062 4.75146C71.7706 4.5871 71.9702 4.50492 72.205 4.50492H76.6779C76.8892 4.50492 77.077 4.5871 77.2414 4.75146C77.4057 4.89234 77.4879 5.08018 77.4879 5.31498ZM78.4741 17.9236C77.7932 18.628 77.4527 19.4733 77.4527 20.4595C77.4527 21.4456 77.7932 22.2909 78.4741 22.9953C79.1785 23.6997 80.012 24.0519 80.9747 24.0519C81.9608 24.0519 82.7944 23.6997 83.4753 22.9953C84.1562 22.2909 84.4966 21.4456 84.4966 20.4595C84.4966 19.4733 84.1562 18.628 83.4753 17.9236C82.7944 17.2192 81.9608 16.867 80.9747 16.867C80.012 16.867 79.1785 17.2192 78.4741 17.9236Z" fill="#17181D"/>
<path d="M97.6928 29.1587H93.2551C93.0203 29.1587 92.8207 29.0765 92.6563 28.9122C92.492 28.7478 92.4098 28.5483 92.4098 28.3135V12.535C92.4098 12.3002 92.492 12.1124 92.6563 11.9715C92.8207 11.8071 93.0203 11.725 93.2551 11.725H97.6928C97.9276 11.725 98.1154 11.8071 98.2563 11.9715C98.4206 12.1124 98.5028 12.3002 98.5028 12.535V28.3135C98.5028 28.5483 98.4206 28.7478 98.2563 28.9122C98.1154 29.0765 97.9276 29.1587 97.6928 29.1587Z" fill="#17181D"/>
<path d="M102.772 23.8406V16.7614H100.623C100.389 16.7614 100.189 16.6792 100.025 16.5148C99.8838 16.3505 99.8134 16.1509 99.8134 15.9161V12.535C99.8134 12.3002 99.8838 12.1124 100.025 11.9715C100.189 11.8071 100.389 11.725 100.623 11.725H102.772V7.42816C102.772 7.19336 102.854 7.00552 103.018 6.86465C103.183 6.70029 103.382 6.61811 103.617 6.61811H108.055C108.29 6.61811 108.477 6.70029 108.618 6.86465C108.783 7.00552 108.865 7.19336 108.865 7.42816V11.725H113.584C113.819 11.725 114.019 11.8071 114.183 11.9715C114.347 12.1124 114.43 12.3002 114.43 12.535V15.9161C114.43 16.1509 114.347 16.3505 114.183 16.5148C114.019 16.6792 113.819 16.7614 113.584 16.7614H108.865V22.3261C108.865 23.4062 109.323 23.9462 110.238 23.9462C110.708 23.9462 111.178 23.7819 111.647 23.4531C112.328 23.007 112.856 23.0657 113.232 23.6292L114.747 26.0594C115.099 26.5994 115.064 27.0808 114.641 27.5034C113.373 28.9122 111.518 29.6166 109.076 29.6166C107.315 29.6166 105.824 29.1352 104.603 28.1726C103.382 27.2099 102.772 25.7659 102.772 23.8406Z" fill="#17181D"/>
<path d="M93.8214 9.95562C92.9468 9.31564 93.4894 7.63184 95.0334 6.19475C96.5773 4.75766 98.5379 4.11148 99.4125 4.75147C100.287 5.39145 99.7445 7.07525 98.2006 8.51234C96.6566 9.94943 94.696 10.5956 93.8214 9.95562Z" fill="#17181D"/>
<g clip-path="url(#clip0_13_14)">
<mask id="mask0_13_14" style="mask-type:luminance" maskUnits="userSpaceOnUse" x="5" y="5" width="26" height="26">
<path d="M27 9C22.0294 4.02944 13.9706 4.02944 9 9C4.02944 13.9706 4.02944 22.0294 9 27C13.9706 31.9706 22.0294 31.9706 27 27C31.9706 22.0294 31.9706 13.9706 27 9Z" fill="white"/>
</mask>
<g mask="url(#mask0_13_14)">
<path d="M5.55902 18.2249C5.62659 25.254 11.3796 30.8974 18.4087 30.8299C25.4378 30.7623 31.0813 25.0093 31.0137 17.9802C30.9461 10.9511 25.1931 5.30763 18.164 5.3752C11.1349 5.44277 5.49145 11.1958 5.55902 18.2249Z" fill="#17181D"/>
<path d="M19.6566 9.88537C18.5018 10.4032 18.538 12.9917 19.7375 15.6671C20.9371 18.3424 22.8457 20.0914 24.0006 19.5736C25.1555 19.0558 25.1193 16.4672 23.9197 13.7919C22.7202 11.1166 20.8115 9.36755 19.6566 9.88537Z" fill="#FAFFFF"/>
<path d="M17.2949 15.107C16.6744 14.9215 15.4621 17.1431 14.5872 20.0692C13.7123 22.9953 13.5061 25.5178 14.1267 25.7034C14.7472 25.8889 15.9595 23.6672 16.8344 20.7411C17.7093 17.815 17.9154 15.2925 17.2949 15.107Z" fill="#FAFFFF"/>
<path d="M3.3326 31.8316C4.94048 33.5549 8.06188 33.2556 10.3044 31.1631C12.547 29.0707 13.0615 25.9774 11.4536 24.2542C9.84574 22.531 6.72434 22.8303 4.48178 24.9227C2.23923 27.0152 1.72472 30.1084 3.3326 31.8316Z" fill="#FAFFFF"/>
<path d="M24.8747 11.7313C26.4825 13.4545 29.6039 13.1552 31.8465 11.0628C34.0891 8.97032 34.6036 5.8771 32.9957 4.15388C31.3878 2.43065 28.2664 2.72995 26.0238 4.8224C23.7813 6.91485 23.2668 10.0081 24.8747 11.7313Z" fill="#FAFFFF"/>
</g>
</g>
<defs>
<clipPath id="clip0_13_14">
<rect width="25.4559" height="25.4559" fill="white" transform="translate(0 18) rotate(-45)"/>
</clipPath>
</defs>
</svg>
